<svg xmlns="http://www.w3.org/2000/svg" xmlns:xlink="http://www.w3.org/1999/xlink" width="103" height="101" viewBox="0 0 103 101"><defs><style>.a,.b{fill:#fff;}.a{opacity:0.1;}.b{opacity:0.5;}.c{filter:url(#a);}</style><filter id="a" x="0" y="0" width="103" height="101" filterUnits="userSpaceOnUse"><feOffset dy="3" input="SourceAlpha"/><feGaussianBlur stdDeviation="3" result="b"/><feFlood flood-opacity="0.161"/><feComposite operator="in" in2="b"/><feComposite in="SourceGraphic"/></filter></defs><g transform="translate(9 6)"><g class="c" transform="matrix(1, 0, 0, 1, -9, -6)"><ellipse class="a" cx="42.5" cy="41.5" rx="42.5" ry="41.5" transform="translate(9 6)"/></g><path class="b" d="M2.351,26.168l11.6-11.88a1.568,1.568,0,0,0,0-2.181L2.351.226a.741.741,0,0,0-1.065,0L.22,1.317a.785.785,0,0,0,0,1.091L10.227,12.651a.785.785,0,0,1,0,1.091L.22,23.986a.785.785,0,0,0,0,1.091l1.065,1.091a.741.741,0,0,0,1.065,0" transform="translate(37.174 27.813)"/></g></svg>