<svg xmlns="http://www.w3.org/2000/svg" width="24" height="24" viewBox="0 0 24 24"><defs><style>.a{fill:rgba(255,255,255,0);}.b{fill:#f33b39;}</style></defs><g transform="translate(-0.237 -0.237)"><rect class="a" width="24" height="24" transform="translate(0.237 0.237)"/><path class="b" d="M7.97,2h7.96A5.97,5.97,0,0,1,21.9,7.97v7.96a5.97,5.97,0,0,1-5.97,5.97H7.97A5.97,5.97,0,0,1,2,15.929V7.97A5.97,5.97,0,0,1,7.97,2Zm0,1.99A3.98,3.98,0,0,0,3.99,7.97v7.96a3.98,3.98,0,0,0,3.98,3.98h7.96a3.98,3.98,0,0,0,3.98-3.98V7.97a3.98,3.98,0,0,0-3.98-3.98Zm3.98,12.934a4.975,4.975,0,1,1,4.975-4.975A4.975,4.975,0,0,1,11.949,16.924Zm0-1.99a2.985,2.985,0,1,0-2.985-2.985A2.985,2.985,0,0,0,11.949,14.934ZM16.924,7.97a.995.995,0,1,1,.995-.995A.995.995,0,0,1,16.924,7.97Z" transform="translate(0.287 0.287)"/></g></svg>