<svg xmlns="http://www.w3.org/2000/svg" width="56" height="56" viewBox="0 0 56 56"><defs><style>.a{fill:#fff;opacity:0;}</style></defs><rect class="a" width="56" height="56"/><g transform="translate(10 13)"><path d="M9.835,4.713c.118-.162.248-.363.414-.631.093-.151.432-.714.489-.805C12.111,1.03,13.108,0,14.908,0h6.626c1.8,0,2.8,1.03,4.171,3.277.056.091.4.654.489.805.166.268.3.469.414.631.078.108.146.194.2.257h4.665a4.969,4.969,0,0,1,4.969,4.969V24.847a4.969,4.969,0,0,1-4.969,4.969H4.969A4.969,4.969,0,0,1,0,24.847V9.939A4.969,4.969,0,0,1,4.969,4.969H9.634C9.689,4.907,9.757,4.82,9.835,4.713ZM4.969,8.282A1.657,1.657,0,0,0,3.313,9.939V24.847A1.657,1.657,0,0,0,4.969,26.5h26.5a1.657,1.657,0,0,0,1.656-1.656V9.939a1.657,1.657,0,0,0-1.656-1.656H26.5a3.126,3.126,0,0,1-2.586-1.635c-.171-.237-.34-.5-.543-.827-.1-.167-.447-.737-.5-.815-.75-1.226-1.2-1.693-1.345-1.693H14.908c-.144,0-.595.467-1.345,1.693-.048.078-.393.648-.5.815-.2.33-.373.59-.543.827A3.126,3.126,0,0,1,9.939,8.282Zm24.847,4.969A1.656,1.656,0,1,0,28.16,11.6,1.657,1.657,0,0,0,29.817,13.252Zm-11.6,11.6A8.282,8.282,0,1,1,26.5,16.565,8.283,8.283,0,0,1,18.221,24.847Zm0-3.313a4.969,4.969,0,1,0-4.969-4.969A4.969,4.969,0,0,0,18.221,21.534Z"/></g></svg>