<svg xmlns="http://www.w3.org/2000/svg" width="56" height="56" viewBox="0 0 56 56"><defs><style>.a{fill:#fff;opacity:0;}</style></defs><rect class="a" width="56" height="56"/><g transform="translate(10 10)"><path d="M18.157,28.927,7.2,35.8V28.927H3.6A3.607,3.607,0,0,1,0,25.311V3.616A3.607,3.607,0,0,1,3.6,0H32.4A3.607,3.607,0,0,1,36,3.616v21.7a3.607,3.607,0,0,1-3.6,3.616Zm-7.357.354,6.323-3.97H32.4V3.616H3.6v21.7h7.2Zm5.4-13.758,7.727-7.761,2.545,2.556L16.2,20.636l-6.673-6.7,2.545-2.556Z"/></g></svg>