<svg xmlns="http://www.w3.org/2000/svg" width="56" height="56" viewBox="0 0 56 56"><defs><style>.a{fill:#fff;opacity:0;}.b{fill-rule:evenodd;}</style></defs><rect class="a" width="56" height="56"/><g transform="translate(10 9.784)"><path class="b" d="M29.163,23.97c-.5-.25-2.942-1.445-3.4-1.61s-.788-.25-1.12.25-1.285,1.607-1.575,1.937-.58.35-1.075.125A13.527,13.527,0,0,1,17.987,22.2a15.108,15.108,0,0,1-2.767-3.45c-.29-.5-.032-.775.217-1.025.225-.225.5-.575.75-.875a4.012,4.012,0,0,0,.495-.825.92.92,0,0,0-.042-.875c-.125-.25-1.12-2.7-1.535-3.675-.4-.975-.812-.85-1.12-.85-.287-.025-.62-.025-.95-.025a1.88,1.88,0,0,0-1.33.6,5.565,5.565,0,0,0-1.74,4.125,9.761,9.761,0,0,0,2.03,5.125c.25.325,3.51,5.325,8.5,7.475,1.19.5,2.115.8,2.84,1.05a6.913,6.913,0,0,0,3.133.2c.958-.15,2.945-1.2,3.36-2.375a4.125,4.125,0,0,0,.3-2.375c-.125-.225-.45-.35-.95-.575M20.1,36.25h-.025a16.668,16.668,0,0,1-8.425-2.3l-.6-.357L4.8,35.218l1.675-6.075-.4-.625A16.53,16.53,0,0,1,31.82,8.127a16.318,16.318,0,0,1,4.85,11.65A16.549,16.549,0,0,1,20.113,36.252M34.2,5.75A20.231,20.231,0,0,0,20.075,0,19.817,19.817,0,0,0,2.825,29.73L0,40l10.557-2.755a20.042,20.042,0,0,0,9.517,2.413h.01A19.9,19.9,0,0,0,40,19.833a19.669,19.669,0,0,0-5.825-14.02" transform="translate(-2 -1.784)"/></g></svg>