<svg xmlns="http://www.w3.org/2000/svg" width="56" height="56" viewBox="0 0 56 56"><defs><style>.a{fill:#fff;opacity:0;}</style></defs><rect class="a" width="56" height="56"/><g transform="translate(8.722 8.959)"><g transform="translate(1.278 1.041)"><path d="M11.863,37.922c-2.651,0-4.725-1.762-4.725-4.014V21.7H10.73V33.908a1.4,1.4,0,0,0,1.133.422A1.33,1.33,0,0,0,13,33.884l0-26.61c0-1.408-1.9-2.642-4.062-2.642S4.87,5.867,4.87,7.275V21.7H1.278V7.275c0-3.437,3.434-6.234,7.656-6.234s7.654,2.8,7.654,6.234V33.908C16.588,36.16,14.512,37.922,11.863,37.922Z" transform="translate(-1.278 -1.041)"/></g><g transform="translate(18.854 1.723)"><g transform="translate(0 0.004)"><path d="M20.186,37.617c-2.651,0-4.725-1.762-4.725-4.014V16.74l-4.4-3.328V1.423h3.592v10.2l4.4,3.328V33.6a1.4,1.4,0,0,0,1.133.422,1.33,1.33,0,0,0,1.137-.445l0-18.625,4.4-3.328V1.423h3.592V13.412l-4.4,3.328V33.6C24.911,35.856,22.835,37.617,20.186,37.617Z" transform="translate(-11.065 -1.423)"/></g><g transform="translate(7.305)"><rect width="3.592" height="11.097" transform="matrix(1, -0.002, 0.002, 1, 0, 0.006)"/></g></g></g></svg>